<mxfile host="Electron" modified="2023-06-18T13:21:44.745Z" agent="Mozilla/5.0 (Macintosh; Intel Mac OS X 10_15_7) AppleWebKit/537.36 (KHTML, like Gecko) draw.io/21.3.7 Chrome/112.0.5615.204 Electron/24.5.0 Safari/537.36" etag="pgFI9J1aA-vVJldSJIGe" version="21.3.7" type="device">
  <diagram id="R2lEEEUBdFMjLlhIrx00" name="Page-1">
    <mxGraphModel dx="1044" dy="792" grid="1" gridSize="10" guides="1" tooltips="1" connect="1" arrows="1" fold="1" page="1" pageScale="1" pageWidth="1169" pageHeight="827" math="0" shadow="0" extFonts="Permanent Marker^https://fonts.googleapis.com/css?family=Permanent+Marker">
      <root>
        <mxCell id="0" />
        <mxCell id="1" parent="0" />
        <mxCell id="0KluFjxymEB3PdpdBPrm-7" value="" style="edgeStyle=orthogonalEdgeStyle;fontSize=15;html=1;endArrow=ERoneToMany;startArrow=ERzeroToMany;rounded=0;fontFamily=Times New Roman;" parent="1" edge="1">
          <mxGeometry width="100" height="100" relative="1" as="geometry">
            <mxPoint x="740" y="470" as="sourcePoint" />
            <mxPoint x="100" y="440" as="targetPoint" />
            <Array as="points">
              <mxPoint x="740" y="680" />
              <mxPoint x="100" y="680" />
            </Array>
          </mxGeometry>
        </mxCell>
        <object label="USER" teamId="teamId&#xa;teamId&#xa;" placeholders="1" id="lhX8aBAA-CN6_TQrvfnU-5">
          <mxCell style="shape=table;startSize=30;container=1;collapsible=1;childLayout=tableLayout;fixedRows=1;rowLines=0;fontStyle=1;align=center;resizeLast=1;movable=1;resizable=1;rotatable=1;deletable=1;editable=1;connectable=1;fillColor=#b1ddf0;strokeColor=#10739e;fontFamily=Times New Roman;fontSize=15;" parent="1" vertex="1">
            <mxGeometry y="80.5" width="200" height="360" as="geometry">
              <mxRectangle x="440" y="80" width="70" height="30" as="alternateBounds" />
            </mxGeometry>
          </mxCell>
        </object>
        <mxCell id="lhX8aBAA-CN6_TQrvfnU-6" value="" style="shape=tableRow;horizontal=0;startSize=0;swimlaneHead=0;swimlaneBody=0;fillColor=none;collapsible=0;dropTarget=0;points=[[0,0.5],[1,0.5]];portConstraint=eastwest;top=0;left=0;right=0;bottom=1;fontFamily=Times New Roman;fontSize=15;" parent="lhX8aBAA-CN6_TQrvfnU-5" vertex="1">
          <mxGeometry y="30" width="200" height="30" as="geometry" />
        </mxCell>
        <mxCell id="lhX8aBAA-CN6_TQrvfnU-7" value="PK" style="shape=partialRectangle;connectable=0;fillColor=none;top=0;left=0;bottom=0;right=0;fontStyle=1;overflow=hidden;fontFamily=Times New Roman;fontSize=15;" parent="lhX8aBAA-CN6_TQrvfnU-6" vertex="1">
          <mxGeometry width="30" height="30" as="geometry">
            <mxRectangle width="30" height="30" as="alternateBounds" />
          </mxGeometry>
        </mxCell>
        <mxCell id="lhX8aBAA-CN6_TQrvfnU-8" value="ID" style="shape=partialRectangle;connectable=0;fillColor=none;top=0;left=0;bottom=0;right=0;align=left;spacingLeft=6;fontStyle=1;overflow=hidden;fontFamily=Times New Roman;fontSize=15;" parent="lhX8aBAA-CN6_TQrvfnU-6" vertex="1">
          <mxGeometry x="30" width="170" height="30" as="geometry">
            <mxRectangle width="170" height="30" as="alternateBounds" />
          </mxGeometry>
        </mxCell>
        <mxCell id="lhX8aBAA-CN6_TQrvfnU-9" value="" style="shape=tableRow;horizontal=0;startSize=0;swimlaneHead=0;swimlaneBody=0;fillColor=none;collapsible=0;dropTarget=0;points=[[0,0.5],[1,0.5]];portConstraint=eastwest;top=0;left=0;right=0;bottom=0;fontFamily=Times New Roman;fontSize=15;" parent="lhX8aBAA-CN6_TQrvfnU-5" vertex="1">
          <mxGeometry y="60" width="200" height="30" as="geometry" />
        </mxCell>
        <mxCell id="lhX8aBAA-CN6_TQrvfnU-10" value="" style="shape=partialRectangle;connectable=0;fillColor=none;top=0;left=0;bottom=0;right=0;editable=1;overflow=hidden;fontFamily=Times New Roman;fontSize=15;" parent="lhX8aBAA-CN6_TQrvfnU-9" vertex="1">
          <mxGeometry width="30" height="30" as="geometry">
            <mxRectangle width="30" height="30" as="alternateBounds" />
          </mxGeometry>
        </mxCell>
        <mxCell id="lhX8aBAA-CN6_TQrvfnU-11" value="email" style="shape=partialRectangle;connectable=0;fillColor=none;top=0;left=0;bottom=0;right=0;align=left;spacingLeft=6;overflow=hidden;fontFamily=Times New Roman;fontSize=15;" parent="lhX8aBAA-CN6_TQrvfnU-9" vertex="1">
          <mxGeometry x="30" width="170" height="30" as="geometry">
            <mxRectangle width="170" height="30" as="alternateBounds" />
          </mxGeometry>
        </mxCell>
        <mxCell id="lhX8aBAA-CN6_TQrvfnU-12" value="" style="shape=tableRow;horizontal=0;startSize=0;swimlaneHead=0;swimlaneBody=0;fillColor=none;collapsible=0;dropTarget=0;points=[[0,0.5],[1,0.5]];portConstraint=eastwest;top=0;left=0;right=0;bottom=0;fontFamily=Times New Roman;fontSize=15;" parent="lhX8aBAA-CN6_TQrvfnU-5" vertex="1">
          <mxGeometry y="90" width="200" height="30" as="geometry" />
        </mxCell>
        <mxCell id="lhX8aBAA-CN6_TQrvfnU-13" value="" style="shape=partialRectangle;connectable=0;fillColor=none;top=0;left=0;bottom=0;right=0;editable=1;overflow=hidden;fontFamily=Times New Roman;fontSize=15;" parent="lhX8aBAA-CN6_TQrvfnU-12" vertex="1">
          <mxGeometry width="30" height="30" as="geometry">
            <mxRectangle width="30" height="30" as="alternateBounds" />
          </mxGeometry>
        </mxCell>
        <mxCell id="lhX8aBAA-CN6_TQrvfnU-14" value="firstName" style="shape=partialRectangle;connectable=0;fillColor=none;top=0;left=0;bottom=0;right=0;align=left;spacingLeft=6;overflow=hidden;fontFamily=Times New Roman;fontSize=15;" parent="lhX8aBAA-CN6_TQrvfnU-12" vertex="1">
          <mxGeometry x="30" width="170" height="30" as="geometry">
            <mxRectangle width="170" height="30" as="alternateBounds" />
          </mxGeometry>
        </mxCell>
        <mxCell id="lhX8aBAA-CN6_TQrvfnU-15" value="" style="shape=tableRow;horizontal=0;startSize=0;swimlaneHead=0;swimlaneBody=0;fillColor=none;collapsible=0;dropTarget=0;points=[[0,0.5],[1,0.5]];portConstraint=eastwest;top=0;left=0;right=0;bottom=0;fontFamily=Times New Roman;fontSize=15;" parent="lhX8aBAA-CN6_TQrvfnU-5" vertex="1">
          <mxGeometry y="120" width="200" height="30" as="geometry" />
        </mxCell>
        <mxCell id="lhX8aBAA-CN6_TQrvfnU-16" value="" style="shape=partialRectangle;connectable=0;fillColor=none;top=0;left=0;bottom=0;right=0;editable=1;overflow=hidden;fontFamily=Times New Roman;fontSize=15;" parent="lhX8aBAA-CN6_TQrvfnU-15" vertex="1">
          <mxGeometry width="30" height="30" as="geometry">
            <mxRectangle width="30" height="30" as="alternateBounds" />
          </mxGeometry>
        </mxCell>
        <object label="lastName" teamId="" id="lhX8aBAA-CN6_TQrvfnU-17">
          <mxCell style="shape=partialRectangle;connectable=0;fillColor=none;top=0;left=0;bottom=0;right=0;align=left;spacingLeft=6;overflow=hidden;fontFamily=Times New Roman;fontSize=15;" parent="lhX8aBAA-CN6_TQrvfnU-15" vertex="1">
            <mxGeometry x="30" width="170" height="30" as="geometry">
              <mxRectangle width="170" height="30" as="alternateBounds" />
            </mxGeometry>
          </mxCell>
        </object>
        <object label="passwordHash" teamId="" id="lhX8aBAA-CN6_TQrvfnU-18">
          <mxCell style="shape=partialRectangle;connectable=0;fillColor=none;top=0;left=0;bottom=0;right=0;align=left;spacingLeft=6;overflow=hidden;fontFamily=Times New Roman;fontSize=15;" parent="1" vertex="1">
            <mxGeometry x="30" y="230.5" width="150" height="30" as="geometry">
              <mxRectangle width="150" height="30" as="alternateBounds" />
            </mxGeometry>
          </mxCell>
        </object>
        <object label="passwordSalt" teamId="" id="lhX8aBAA-CN6_TQrvfnU-19">
          <mxCell style="shape=partialRectangle;connectable=0;fillColor=none;top=0;left=0;bottom=0;right=0;align=left;spacingLeft=6;overflow=hidden;fontFamily=Times New Roman;fontSize=15;" parent="1" vertex="1">
            <mxGeometry x="30" y="260.5" width="150" height="30" as="geometry">
              <mxRectangle width="150" height="30" as="alternateBounds" />
            </mxGeometry>
          </mxCell>
        </object>
        <object label="teamId" teamId="" id="lhX8aBAA-CN6_TQrvfnU-20">
          <mxCell style="shape=partialRectangle;connectable=0;fillColor=none;top=0;left=0;bottom=0;right=0;align=left;spacingLeft=6;overflow=hidden;fontFamily=Times New Roman;fontSize=15;" parent="1" vertex="1">
            <mxGeometry x="30" y="290.5" width="150" height="30" as="geometry">
              <mxRectangle width="150" height="30" as="alternateBounds" />
            </mxGeometry>
          </mxCell>
        </object>
        <object label="jobTitle" teamId="" id="lhX8aBAA-CN6_TQrvfnU-21">
          <mxCell style="shape=partialRectangle;connectable=0;fillColor=none;top=0;left=0;bottom=0;right=0;align=left;spacingLeft=6;overflow=hidden;fontFamily=Times New Roman;fontSize=15;" parent="1" vertex="1">
            <mxGeometry x="30" y="320.5" width="150" height="30" as="geometry">
              <mxRectangle width="150" height="30" as="alternateBounds" />
            </mxGeometry>
          </mxCell>
        </object>
        <mxCell id="lhX8aBAA-CN6_TQrvfnU-22" value="" style="endArrow=none;html=1;rounded=0;fillColor=#b1ddf0;strokeColor=#10739e;fontFamily=Times New Roman;fontSize=15;" parent="1" edge="1">
          <mxGeometry width="50" height="50" relative="1" as="geometry">
            <mxPoint x="30" y="440.5" as="sourcePoint" />
            <mxPoint x="30" y="230.5" as="targetPoint" />
          </mxGeometry>
        </mxCell>
        <object label="TEAM" teamId="teamId&#xa;teamId&#xa;" placeholders="1" id="lhX8aBAA-CN6_TQrvfnU-23">
          <mxCell style="shape=table;startSize=30;container=1;collapsible=1;childLayout=tableLayout;fixedRows=1;rowLines=0;fontStyle=1;align=center;resizeLast=1;movable=1;resizable=1;rotatable=1;deletable=1;editable=1;connectable=1;fillColor=#b1ddf0;strokeColor=#10739e;fontFamily=Times New Roman;fontSize=15;" parent="1" vertex="1">
            <mxGeometry x="320" y="80.5" width="200" height="269.5" as="geometry">
              <mxRectangle x="440" y="80" width="70" height="30" as="alternateBounds" />
            </mxGeometry>
          </mxCell>
        </object>
        <mxCell id="lhX8aBAA-CN6_TQrvfnU-24" value="" style="shape=tableRow;horizontal=0;startSize=0;swimlaneHead=0;swimlaneBody=0;fillColor=none;collapsible=0;dropTarget=0;points=[[0,0.5],[1,0.5]];portConstraint=eastwest;top=0;left=0;right=0;bottom=1;fontFamily=Times New Roman;fontSize=15;" parent="lhX8aBAA-CN6_TQrvfnU-23" vertex="1">
          <mxGeometry y="30" width="200" height="30" as="geometry" />
        </mxCell>
        <mxCell id="lhX8aBAA-CN6_TQrvfnU-25" value="PK" style="shape=partialRectangle;connectable=0;fillColor=none;top=0;left=0;bottom=0;right=0;fontStyle=1;overflow=hidden;fontFamily=Times New Roman;fontSize=15;" parent="lhX8aBAA-CN6_TQrvfnU-24" vertex="1">
          <mxGeometry width="30" height="30" as="geometry">
            <mxRectangle width="30" height="30" as="alternateBounds" />
          </mxGeometry>
        </mxCell>
        <mxCell id="lhX8aBAA-CN6_TQrvfnU-26" value="ID" style="shape=partialRectangle;connectable=0;fillColor=none;top=0;left=0;bottom=0;right=0;align=left;spacingLeft=6;fontStyle=1;overflow=hidden;fontFamily=Times New Roman;fontSize=15;" parent="lhX8aBAA-CN6_TQrvfnU-24" vertex="1">
          <mxGeometry x="30" width="170" height="30" as="geometry">
            <mxRectangle width="170" height="30" as="alternateBounds" />
          </mxGeometry>
        </mxCell>
        <mxCell id="lhX8aBAA-CN6_TQrvfnU-27" value="" style="shape=tableRow;horizontal=0;startSize=0;swimlaneHead=0;swimlaneBody=0;fillColor=none;collapsible=0;dropTarget=0;points=[[0,0.5],[1,0.5]];portConstraint=eastwest;top=0;left=0;right=0;bottom=0;fontFamily=Times New Roman;fontSize=15;" parent="lhX8aBAA-CN6_TQrvfnU-23" vertex="1">
          <mxGeometry y="60" width="200" height="30" as="geometry" />
        </mxCell>
        <mxCell id="lhX8aBAA-CN6_TQrvfnU-28" value="" style="shape=partialRectangle;connectable=0;fillColor=none;top=0;left=0;bottom=0;right=0;editable=1;overflow=hidden;fontFamily=Times New Roman;fontSize=15;" parent="lhX8aBAA-CN6_TQrvfnU-27" vertex="1">
          <mxGeometry width="30" height="30" as="geometry">
            <mxRectangle width="30" height="30" as="alternateBounds" />
          </mxGeometry>
        </mxCell>
        <mxCell id="lhX8aBAA-CN6_TQrvfnU-29" value="teamName" style="shape=partialRectangle;connectable=0;fillColor=none;top=0;left=0;bottom=0;right=0;align=left;spacingLeft=6;overflow=hidden;fontFamily=Times New Roman;fontSize=15;" parent="lhX8aBAA-CN6_TQrvfnU-27" vertex="1">
          <mxGeometry x="30" width="170" height="30" as="geometry">
            <mxRectangle width="170" height="30" as="alternateBounds" />
          </mxGeometry>
        </mxCell>
        <mxCell id="lhX8aBAA-CN6_TQrvfnU-30" value="" style="shape=tableRow;horizontal=0;startSize=0;swimlaneHead=0;swimlaneBody=0;fillColor=none;collapsible=0;dropTarget=0;points=[[0,0.5],[1,0.5]];portConstraint=eastwest;top=0;left=0;right=0;bottom=0;fontFamily=Times New Roman;fontSize=15;" parent="lhX8aBAA-CN6_TQrvfnU-23" vertex="1">
          <mxGeometry y="90" width="200" height="30" as="geometry" />
        </mxCell>
        <mxCell id="lhX8aBAA-CN6_TQrvfnU-31" value="" style="shape=partialRectangle;connectable=0;fillColor=none;top=0;left=0;bottom=0;right=0;editable=1;overflow=hidden;fontFamily=Times New Roman;fontSize=15;" parent="lhX8aBAA-CN6_TQrvfnU-30" vertex="1">
          <mxGeometry width="30" height="30" as="geometry">
            <mxRectangle width="30" height="30" as="alternateBounds" />
          </mxGeometry>
        </mxCell>
        <mxCell id="lhX8aBAA-CN6_TQrvfnU-32" value="createdBy" style="shape=partialRectangle;connectable=0;fillColor=none;top=0;left=0;bottom=0;right=0;align=left;spacingLeft=6;overflow=hidden;fontFamily=Times New Roman;fontSize=15;" parent="lhX8aBAA-CN6_TQrvfnU-30" vertex="1">
          <mxGeometry x="30" width="170" height="30" as="geometry">
            <mxRectangle width="170" height="30" as="alternateBounds" />
          </mxGeometry>
        </mxCell>
        <mxCell id="lhX8aBAA-CN6_TQrvfnU-33" value="" style="shape=tableRow;horizontal=0;startSize=0;swimlaneHead=0;swimlaneBody=0;fillColor=none;collapsible=0;dropTarget=0;points=[[0,0.5],[1,0.5]];portConstraint=eastwest;top=0;left=0;right=0;bottom=0;fontFamily=Times New Roman;fontSize=15;" parent="lhX8aBAA-CN6_TQrvfnU-23" vertex="1">
          <mxGeometry y="120" width="200" height="30" as="geometry" />
        </mxCell>
        <mxCell id="lhX8aBAA-CN6_TQrvfnU-34" value="" style="shape=partialRectangle;connectable=0;fillColor=none;top=0;left=0;bottom=0;right=0;editable=1;overflow=hidden;fontFamily=Times New Roman;fontSize=15;" parent="lhX8aBAA-CN6_TQrvfnU-33" vertex="1">
          <mxGeometry width="30" height="30" as="geometry">
            <mxRectangle width="30" height="30" as="alternateBounds" />
          </mxGeometry>
        </mxCell>
        <object label="accessCode" teamId="" id="lhX8aBAA-CN6_TQrvfnU-35">
          <mxCell style="shape=partialRectangle;connectable=0;fillColor=none;top=0;left=0;bottom=0;right=0;align=left;spacingLeft=6;overflow=hidden;fontFamily=Times New Roman;fontSize=15;" parent="lhX8aBAA-CN6_TQrvfnU-33" vertex="1">
            <mxGeometry x="30" width="170" height="30" as="geometry">
              <mxRectangle width="170" height="30" as="alternateBounds" />
            </mxGeometry>
          </mxCell>
        </object>
        <object label="EVENT" teamId="teamId&#xa;teamId&#xa;" placeholders="1" id="ROYj8HqKsCZeWACCtqD5-10">
          <mxCell style="shape=table;startSize=30;container=1;collapsible=1;childLayout=tableLayout;fixedRows=1;rowLines=0;fontStyle=1;align=center;resizeLast=1;movable=1;resizable=1;rotatable=1;deletable=1;editable=1;connectable=1;fillColor=#b1ddf0;strokeColor=#10739e;fontFamily=Times New Roman;fontSize=15;" parent="1" vertex="1">
            <mxGeometry x="640" y="80.5" width="200" height="389.5" as="geometry">
              <mxRectangle x="440" y="80" width="70" height="30" as="alternateBounds" />
            </mxGeometry>
          </mxCell>
        </object>
        <mxCell id="ROYj8HqKsCZeWACCtqD5-11" value="" style="shape=tableRow;horizontal=0;startSize=0;swimlaneHead=0;swimlaneBody=0;fillColor=none;collapsible=0;dropTarget=0;points=[[0,0.5],[1,0.5]];portConstraint=eastwest;top=0;left=0;right=0;bottom=1;fontFamily=Times New Roman;fontSize=15;" parent="ROYj8HqKsCZeWACCtqD5-10" vertex="1">
          <mxGeometry y="30" width="200" height="30" as="geometry" />
        </mxCell>
        <mxCell id="ROYj8HqKsCZeWACCtqD5-12" value="PK" style="shape=partialRectangle;connectable=0;fillColor=none;top=0;left=0;bottom=0;right=0;fontStyle=1;overflow=hidden;fontFamily=Times New Roman;fontSize=15;" parent="ROYj8HqKsCZeWACCtqD5-11" vertex="1">
          <mxGeometry width="30" height="30" as="geometry">
            <mxRectangle width="30" height="30" as="alternateBounds" />
          </mxGeometry>
        </mxCell>
        <mxCell id="ROYj8HqKsCZeWACCtqD5-13" value="ID" style="shape=partialRectangle;connectable=0;fillColor=none;top=0;left=0;bottom=0;right=0;align=left;spacingLeft=6;fontStyle=1;overflow=hidden;fontFamily=Times New Roman;fontSize=15;" parent="ROYj8HqKsCZeWACCtqD5-11" vertex="1">
          <mxGeometry x="30" width="170" height="30" as="geometry">
            <mxRectangle width="170" height="30" as="alternateBounds" />
          </mxGeometry>
        </mxCell>
        <mxCell id="ROYj8HqKsCZeWACCtqD5-14" value="" style="shape=tableRow;horizontal=0;startSize=0;swimlaneHead=0;swimlaneBody=0;fillColor=none;collapsible=0;dropTarget=0;points=[[0,0.5],[1,0.5]];portConstraint=eastwest;top=0;left=0;right=0;bottom=0;fontFamily=Times New Roman;fontSize=15;" parent="ROYj8HqKsCZeWACCtqD5-10" vertex="1">
          <mxGeometry y="60" width="200" height="30" as="geometry" />
        </mxCell>
        <mxCell id="ROYj8HqKsCZeWACCtqD5-15" value="" style="shape=partialRectangle;connectable=0;fillColor=none;top=0;left=0;bottom=0;right=0;editable=1;overflow=hidden;fontFamily=Times New Roman;fontSize=15;" parent="ROYj8HqKsCZeWACCtqD5-14" vertex="1">
          <mxGeometry width="30" height="30" as="geometry">
            <mxRectangle width="30" height="30" as="alternateBounds" />
          </mxGeometry>
        </mxCell>
        <mxCell id="ROYj8HqKsCZeWACCtqD5-16" value="eventTitle" style="shape=partialRectangle;connectable=0;fillColor=none;top=0;left=0;bottom=0;right=0;align=left;spacingLeft=6;overflow=hidden;fontFamily=Times New Roman;fontSize=15;" parent="ROYj8HqKsCZeWACCtqD5-14" vertex="1">
          <mxGeometry x="30" width="170" height="30" as="geometry">
            <mxRectangle width="170" height="30" as="alternateBounds" />
          </mxGeometry>
        </mxCell>
        <mxCell id="ROYj8HqKsCZeWACCtqD5-17" value="" style="shape=tableRow;horizontal=0;startSize=0;swimlaneHead=0;swimlaneBody=0;fillColor=none;collapsible=0;dropTarget=0;points=[[0,0.5],[1,0.5]];portConstraint=eastwest;top=0;left=0;right=0;bottom=0;fontFamily=Times New Roman;fontSize=15;" parent="ROYj8HqKsCZeWACCtqD5-10" vertex="1">
          <mxGeometry y="90" width="200" height="30" as="geometry" />
        </mxCell>
        <mxCell id="ROYj8HqKsCZeWACCtqD5-18" value="" style="shape=partialRectangle;connectable=0;fillColor=none;top=0;left=0;bottom=0;right=0;editable=1;overflow=hidden;fontFamily=Times New Roman;fontSize=15;" parent="ROYj8HqKsCZeWACCtqD5-17" vertex="1">
          <mxGeometry width="30" height="30" as="geometry">
            <mxRectangle width="30" height="30" as="alternateBounds" />
          </mxGeometry>
        </mxCell>
        <mxCell id="ROYj8HqKsCZeWACCtqD5-19" value="eventDescription" style="shape=partialRectangle;connectable=0;fillColor=none;top=0;left=0;bottom=0;right=0;align=left;spacingLeft=6;overflow=hidden;fontFamily=Times New Roman;fontSize=15;" parent="ROYj8HqKsCZeWACCtqD5-17" vertex="1">
          <mxGeometry x="30" width="170" height="30" as="geometry">
            <mxRectangle width="170" height="30" as="alternateBounds" />
          </mxGeometry>
        </mxCell>
        <mxCell id="ROYj8HqKsCZeWACCtqD5-20" value="" style="shape=tableRow;horizontal=0;startSize=0;swimlaneHead=0;swimlaneBody=0;fillColor=none;collapsible=0;dropTarget=0;points=[[0,0.5],[1,0.5]];portConstraint=eastwest;top=0;left=0;right=0;bottom=0;fontFamily=Times New Roman;fontSize=15;" parent="ROYj8HqKsCZeWACCtqD5-10" vertex="1">
          <mxGeometry y="120" width="200" height="30" as="geometry" />
        </mxCell>
        <mxCell id="ROYj8HqKsCZeWACCtqD5-21" value="" style="shape=partialRectangle;connectable=0;fillColor=none;top=0;left=0;bottom=0;right=0;editable=1;overflow=hidden;fontFamily=Times New Roman;fontSize=15;" parent="ROYj8HqKsCZeWACCtqD5-20" vertex="1">
          <mxGeometry width="30" height="30" as="geometry">
            <mxRectangle width="30" height="30" as="alternateBounds" />
          </mxGeometry>
        </mxCell>
        <object label="attendees" teamId="" id="ROYj8HqKsCZeWACCtqD5-22">
          <mxCell style="shape=partialRectangle;connectable=0;fillColor=none;top=0;left=0;bottom=0;right=0;align=left;spacingLeft=6;overflow=hidden;fontFamily=Times New Roman;fontSize=15;" parent="ROYj8HqKsCZeWACCtqD5-20" vertex="1">
            <mxGeometry x="30" width="170" height="30" as="geometry">
              <mxRectangle width="170" height="30" as="alternateBounds" />
            </mxGeometry>
          </mxCell>
        </object>
        <object label="startTime" teamId="" id="ROYj8HqKsCZeWACCtqD5-23">
          <mxCell style="shape=partialRectangle;connectable=0;fillColor=none;top=0;left=0;bottom=0;right=0;align=left;spacingLeft=6;overflow=hidden;fontFamily=Times New Roman;fontSize=15;" parent="1" vertex="1">
            <mxGeometry x="670" y="230.5" width="170" height="30" as="geometry">
              <mxRectangle width="150" height="30" as="alternateBounds" />
            </mxGeometry>
          </mxCell>
        </object>
        <object label="endTime" teamId="" id="ROYj8HqKsCZeWACCtqD5-24">
          <mxCell style="shape=partialRectangle;connectable=0;fillColor=none;top=0;left=0;bottom=0;right=0;align=left;spacingLeft=6;overflow=hidden;fontFamily=Times New Roman;fontSize=15;" parent="1" vertex="1">
            <mxGeometry x="670" y="260.5" width="170" height="30" as="geometry">
              <mxRectangle width="150" height="30" as="alternateBounds" />
            </mxGeometry>
          </mxCell>
        </object>
        <object label="isRecurring" teamId="" id="ROYj8HqKsCZeWACCtqD5-25">
          <mxCell style="shape=partialRectangle;connectable=0;fillColor=none;top=0;left=0;bottom=0;right=0;align=left;spacingLeft=6;overflow=hidden;fontFamily=Times New Roman;fontSize=15;" parent="1" vertex="1">
            <mxGeometry x="670" y="290.5" width="170" height="30" as="geometry">
              <mxRectangle width="150" height="30" as="alternateBounds" />
            </mxGeometry>
          </mxCell>
        </object>
        <object label="startDate" teamId="" id="ROYj8HqKsCZeWACCtqD5-26">
          <mxCell style="shape=partialRectangle;connectable=0;fillColor=none;top=0;left=0;bottom=0;right=0;align=left;spacingLeft=6;overflow=hidden;fontFamily=Times New Roman;fontSize=15;" parent="1" vertex="1">
            <mxGeometry x="670" y="320.5" width="170" height="30" as="geometry">
              <mxRectangle width="150" height="30" as="alternateBounds" />
            </mxGeometry>
          </mxCell>
        </object>
        <mxCell id="ROYj8HqKsCZeWACCtqD5-27" value="" style="endArrow=none;html=1;rounded=0;fillColor=#b0e3e6;strokeColor=#0e8088;fontFamily=Times New Roman;fontSize=15;" parent="1" edge="1">
          <mxGeometry width="50" height="50" relative="1" as="geometry">
            <mxPoint x="670" y="470" as="sourcePoint" />
            <mxPoint x="670" y="230.5" as="targetPoint" />
          </mxGeometry>
        </mxCell>
        <object label="RESPONSE" teamId="teamId&#xa;teamId&#xa;" placeholders="1" id="ROYj8HqKsCZeWACCtqD5-28">
          <mxCell style="shape=table;startSize=30;container=1;collapsible=1;childLayout=tableLayout;fixedRows=1;rowLines=0;fontStyle=1;align=center;resizeLast=1;movable=1;resizable=1;rotatable=1;deletable=1;editable=1;connectable=1;fillColor=#b1ddf0;strokeColor=#10739e;fontFamily=Times New Roman;fontSize=15;" parent="1" vertex="1">
            <mxGeometry x="320" y="390" width="200" height="270" as="geometry">
              <mxRectangle x="440" y="80" width="70" height="30" as="alternateBounds" />
            </mxGeometry>
          </mxCell>
        </object>
        <mxCell id="ROYj8HqKsCZeWACCtqD5-29" value="" style="shape=tableRow;horizontal=0;startSize=0;swimlaneHead=0;swimlaneBody=0;fillColor=none;collapsible=0;dropTarget=0;points=[[0,0.5],[1,0.5]];portConstraint=eastwest;top=0;left=0;right=0;bottom=1;fontFamily=Times New Roman;fontSize=15;" parent="ROYj8HqKsCZeWACCtqD5-28" vertex="1">
          <mxGeometry y="30" width="200" height="30" as="geometry" />
        </mxCell>
        <mxCell id="ROYj8HqKsCZeWACCtqD5-30" value="PK" style="shape=partialRectangle;connectable=0;fillColor=none;top=0;left=0;bottom=0;right=0;fontStyle=1;overflow=hidden;fontFamily=Times New Roman;fontSize=15;" parent="ROYj8HqKsCZeWACCtqD5-29" vertex="1">
          <mxGeometry width="30" height="30" as="geometry">
            <mxRectangle width="30" height="30" as="alternateBounds" />
          </mxGeometry>
        </mxCell>
        <mxCell id="ROYj8HqKsCZeWACCtqD5-31" value="ID" style="shape=partialRectangle;connectable=0;fillColor=none;top=0;left=0;bottom=0;right=0;align=left;spacingLeft=6;fontStyle=1;overflow=hidden;fontFamily=Times New Roman;fontSize=15;" parent="ROYj8HqKsCZeWACCtqD5-29" vertex="1">
          <mxGeometry x="30" width="170" height="30" as="geometry">
            <mxRectangle width="170" height="30" as="alternateBounds" />
          </mxGeometry>
        </mxCell>
        <mxCell id="ROYj8HqKsCZeWACCtqD5-32" value="" style="shape=tableRow;horizontal=0;startSize=0;swimlaneHead=0;swimlaneBody=0;fillColor=none;collapsible=0;dropTarget=0;points=[[0,0.5],[1,0.5]];portConstraint=eastwest;top=0;left=0;right=0;bottom=0;fontFamily=Times New Roman;fontSize=15;" parent="ROYj8HqKsCZeWACCtqD5-28" vertex="1">
          <mxGeometry y="60" width="200" height="30" as="geometry" />
        </mxCell>
        <mxCell id="ROYj8HqKsCZeWACCtqD5-33" value="" style="shape=partialRectangle;connectable=0;fillColor=none;top=0;left=0;bottom=0;right=0;editable=1;overflow=hidden;fontFamily=Times New Roman;fontSize=15;" parent="ROYj8HqKsCZeWACCtqD5-32" vertex="1">
          <mxGeometry width="30" height="30" as="geometry">
            <mxRectangle width="30" height="30" as="alternateBounds" />
          </mxGeometry>
        </mxCell>
        <mxCell id="ROYj8HqKsCZeWACCtqD5-34" value="userId" style="shape=partialRectangle;connectable=0;fillColor=none;top=0;left=0;bottom=0;right=0;align=left;spacingLeft=6;overflow=hidden;fontFamily=Times New Roman;fontSize=15;" parent="ROYj8HqKsCZeWACCtqD5-32" vertex="1">
          <mxGeometry x="30" width="170" height="30" as="geometry">
            <mxRectangle width="170" height="30" as="alternateBounds" />
          </mxGeometry>
        </mxCell>
        <mxCell id="ROYj8HqKsCZeWACCtqD5-35" value="" style="shape=tableRow;horizontal=0;startSize=0;swimlaneHead=0;swimlaneBody=0;fillColor=none;collapsible=0;dropTarget=0;points=[[0,0.5],[1,0.5]];portConstraint=eastwest;top=0;left=0;right=0;bottom=0;fontFamily=Times New Roman;fontSize=15;" parent="ROYj8HqKsCZeWACCtqD5-28" vertex="1">
          <mxGeometry y="90" width="200" height="30" as="geometry" />
        </mxCell>
        <mxCell id="ROYj8HqKsCZeWACCtqD5-36" value="" style="shape=partialRectangle;connectable=0;fillColor=none;top=0;left=0;bottom=0;right=0;editable=1;overflow=hidden;fontFamily=Times New Roman;fontSize=15;" parent="ROYj8HqKsCZeWACCtqD5-35" vertex="1">
          <mxGeometry width="30" height="30" as="geometry">
            <mxRectangle width="30" height="30" as="alternateBounds" />
          </mxGeometry>
        </mxCell>
        <mxCell id="ROYj8HqKsCZeWACCtqD5-37" value="eventId" style="shape=partialRectangle;connectable=0;fillColor=none;top=0;left=0;bottom=0;right=0;align=left;spacingLeft=6;overflow=hidden;fontFamily=Times New Roman;fontSize=15;" parent="ROYj8HqKsCZeWACCtqD5-35" vertex="1">
          <mxGeometry x="30" width="170" height="30" as="geometry">
            <mxRectangle width="170" height="30" as="alternateBounds" />
          </mxGeometry>
        </mxCell>
        <mxCell id="ROYj8HqKsCZeWACCtqD5-38" value="" style="shape=tableRow;horizontal=0;startSize=0;swimlaneHead=0;swimlaneBody=0;fillColor=none;collapsible=0;dropTarget=0;points=[[0,0.5],[1,0.5]];portConstraint=eastwest;top=0;left=0;right=0;bottom=0;fontFamily=Times New Roman;fontSize=15;" parent="ROYj8HqKsCZeWACCtqD5-28" vertex="1">
          <mxGeometry y="120" width="200" height="30" as="geometry" />
        </mxCell>
        <mxCell id="ROYj8HqKsCZeWACCtqD5-39" value="" style="shape=partialRectangle;connectable=0;fillColor=none;top=0;left=0;bottom=0;right=0;editable=1;overflow=hidden;fontFamily=Times New Roman;fontSize=15;" parent="ROYj8HqKsCZeWACCtqD5-38" vertex="1">
          <mxGeometry width="30" height="30" as="geometry">
            <mxRectangle width="30" height="30" as="alternateBounds" />
          </mxGeometry>
        </mxCell>
        <object label="isAttending" teamId="" id="ROYj8HqKsCZeWACCtqD5-40">
          <mxCell style="shape=partialRectangle;connectable=0;fillColor=none;top=0;left=0;bottom=0;right=0;align=left;spacingLeft=6;overflow=hidden;fontFamily=Times New Roman;fontSize=15;" parent="ROYj8HqKsCZeWACCtqD5-38" vertex="1">
            <mxGeometry x="30" width="170" height="30" as="geometry">
              <mxRectangle width="170" height="30" as="alternateBounds" />
            </mxGeometry>
          </mxCell>
        </object>
        <object label="sendReminder" teamId="" id="ROYj8HqKsCZeWACCtqD5-41">
          <mxCell style="shape=partialRectangle;connectable=0;fillColor=none;top=0;left=0;bottom=0;right=0;align=left;spacingLeft=6;overflow=hidden;fontFamily=Times New Roman;fontSize=15;" parent="1" vertex="1">
            <mxGeometry x="350" y="540" width="170" height="30" as="geometry">
              <mxRectangle width="150" height="30" as="alternateBounds" />
            </mxGeometry>
          </mxCell>
        </object>
        <object label="reminderTime" teamId="" id="ROYj8HqKsCZeWACCtqD5-42">
          <mxCell style="shape=partialRectangle;connectable=0;fillColor=none;top=0;left=0;bottom=0;right=0;align=left;spacingLeft=6;overflow=hidden;fontFamily=Times New Roman;fontSize=15;" parent="1" vertex="1">
            <mxGeometry x="350" y="570" width="170" height="31" as="geometry">
              <mxRectangle width="150" height="30" as="alternateBounds" />
            </mxGeometry>
          </mxCell>
        </object>
        <mxCell id="ROYj8HqKsCZeWACCtqD5-45" value="" style="endArrow=none;html=1;rounded=0;fillColor=#b1ddf0;strokeColor=#10739e;fontFamily=Times New Roman;fontSize=15;" parent="1" edge="1">
          <mxGeometry width="50" height="50" relative="1" as="geometry">
            <mxPoint x="350" y="660" as="sourcePoint" />
            <mxPoint x="350" y="540" as="targetPoint" />
          </mxGeometry>
        </mxCell>
        <object label="endDate" teamId="" id="ROYj8HqKsCZeWACCtqD5-46">
          <mxCell style="shape=partialRectangle;connectable=0;fillColor=none;top=0;left=0;bottom=0;right=0;align=left;spacingLeft=6;overflow=hidden;fontFamily=Times New Roman;fontSize=15;" parent="1" vertex="1">
            <mxGeometry x="670" y="350.5" width="170" height="30" as="geometry">
              <mxRectangle width="150" height="30" as="alternateBounds" />
            </mxGeometry>
          </mxCell>
        </object>
        <object label="" teamId="" id="ROYj8HqKsCZeWACCtqD5-49">
          <mxCell style="shape=partialRectangle;connectable=0;fillColor=none;top=0;left=0;bottom=0;right=0;align=left;spacingLeft=6;overflow=hidden;fontFamily=Times New Roman;fontSize=15;" parent="1" vertex="1">
            <mxGeometry x="30" y="350.5" width="170" height="30" as="geometry">
              <mxRectangle width="150" height="30" as="alternateBounds" />
            </mxGeometry>
          </mxCell>
        </object>
        <object label="endWorkingHours" teamId="" id="ROYj8HqKsCZeWACCtqD5-50">
          <mxCell style="shape=partialRectangle;connectable=0;fillColor=none;top=0;left=0;bottom=0;right=0;align=left;spacingLeft=6;overflow=hidden;fontFamily=Times New Roman;fontSize=15;" parent="1" vertex="1">
            <mxGeometry x="350" y="260.5" width="170" height="30" as="geometry">
              <mxRectangle width="170" height="30" as="alternateBounds" />
            </mxGeometry>
          </mxCell>
        </object>
        <object label="startWorkingHours" teamId="" id="ROYj8HqKsCZeWACCtqD5-51">
          <mxCell style="shape=partialRectangle;connectable=0;fillColor=none;top=0;left=0;bottom=0;right=0;align=left;spacingLeft=6;overflow=hidden;fontFamily=Times New Roman;fontSize=15;" parent="1" vertex="1">
            <mxGeometry x="350" y="230.5" width="170" height="30" as="geometry">
              <mxRectangle width="170" height="30" as="alternateBounds" />
            </mxGeometry>
          </mxCell>
        </object>
        <mxCell id="ROYj8HqKsCZeWACCtqD5-52" value="" style="endArrow=none;html=1;rounded=0;fillColor=#b1ddf0;strokeColor=#10739e;fontFamily=Times New Roman;fontSize=15;" parent="1" edge="1">
          <mxGeometry width="50" height="50" relative="1" as="geometry">
            <mxPoint x="350" y="350" as="sourcePoint" />
            <mxPoint x="350" y="230.5" as="targetPoint" />
          </mxGeometry>
        </mxCell>
        <object label="createdDate" teamId="" id="ROYj8HqKsCZeWACCtqD5-53">
          <mxCell style="shape=partialRectangle;connectable=0;fillColor=none;top=0;left=0;bottom=0;right=0;align=left;spacingLeft=6;overflow=hidden;fontFamily=Times New Roman;fontSize=15;" parent="1" vertex="1">
            <mxGeometry x="30" y="380.5" width="170" height="30" as="geometry">
              <mxRectangle width="170" height="30" as="alternateBounds" />
            </mxGeometry>
          </mxCell>
        </object>
        <object label="createdDate" teamId="" id="ROYj8HqKsCZeWACCtqD5-55">
          <mxCell style="shape=partialRectangle;connectable=0;fillColor=none;top=0;left=0;bottom=0;right=0;align=left;spacingLeft=6;overflow=hidden;fontFamily=Times New Roman;fontSize=15;" parent="1" vertex="1">
            <mxGeometry x="350" y="601" width="170" height="30" as="geometry">
              <mxRectangle width="170" height="30" as="alternateBounds" />
            </mxGeometry>
          </mxCell>
        </object>
        <object label="lastModified" teamId="" id="ROYj8HqKsCZeWACCtqD5-56">
          <mxCell style="shape=partialRectangle;connectable=0;fillColor=none;top=0;left=0;bottom=0;right=0;align=left;spacingLeft=6;overflow=hidden;fontFamily=Times New Roman;fontSize=15;" parent="1" vertex="1">
            <mxGeometry x="30" y="410.5" width="170" height="30" as="geometry">
              <mxRectangle width="170" height="30" as="alternateBounds" />
            </mxGeometry>
          </mxCell>
        </object>
        <object label="createdBy" teamId="" id="ROYj8HqKsCZeWACCtqD5-57">
          <mxCell style="shape=partialRectangle;connectable=0;fillColor=none;top=0;left=0;bottom=0;right=0;align=left;spacingLeft=6;overflow=hidden;fontFamily=Times New Roman;fontSize=15;" parent="1" vertex="1">
            <mxGeometry x="670" y="380.5" width="170" height="30" as="geometry">
              <mxRectangle width="170" height="30" as="alternateBounds" />
            </mxGeometry>
          </mxCell>
        </object>
        <object label="lastModified" teamId="" id="ROYj8HqKsCZeWACCtqD5-58">
          <mxCell style="shape=partialRectangle;connectable=0;fillColor=none;top=0;left=0;bottom=0;right=0;align=left;spacingLeft=6;overflow=hidden;fontFamily=Times New Roman;fontSize=15;" parent="1" vertex="1">
            <mxGeometry x="350" y="631" width="170" height="30" as="geometry">
              <mxRectangle width="170" height="30" as="alternateBounds" />
            </mxGeometry>
          </mxCell>
        </object>
        <object label="RECURRING PATTERN" teamId="teamId&#xa;teamId&#xa;" placeholders="1" id="ROYj8HqKsCZeWACCtqD5-59">
          <mxCell style="shape=table;startSize=30;container=1;collapsible=1;childLayout=tableLayout;fixedRows=1;rowLines=0;fontStyle=1;align=center;resizeLast=1;movable=1;resizable=1;rotatable=1;deletable=1;editable=1;connectable=1;fillColor=#b1ddf0;strokeColor=#10739e;fontFamily=Times New Roman;fontSize=15;" parent="1" vertex="1">
            <mxGeometry x="960" y="80.5" width="200" height="269.5" as="geometry">
              <mxRectangle x="440" y="80" width="70" height="30" as="alternateBounds" />
            </mxGeometry>
          </mxCell>
        </object>
        <mxCell id="ROYj8HqKsCZeWACCtqD5-60" value="" style="shape=tableRow;horizontal=0;startSize=0;swimlaneHead=0;swimlaneBody=0;fillColor=none;collapsible=0;dropTarget=0;points=[[0,0.5],[1,0.5]];portConstraint=eastwest;top=0;left=0;right=0;bottom=1;fontFamily=Times New Roman;fontSize=15;" parent="ROYj8HqKsCZeWACCtqD5-59" vertex="1">
          <mxGeometry y="30" width="200" height="30" as="geometry" />
        </mxCell>
        <mxCell id="ROYj8HqKsCZeWACCtqD5-61" value="PK" style="shape=partialRectangle;connectable=0;fillColor=none;top=0;left=0;bottom=0;right=0;fontStyle=1;overflow=hidden;fontFamily=Times New Roman;fontSize=15;" parent="ROYj8HqKsCZeWACCtqD5-60" vertex="1">
          <mxGeometry width="30" height="30" as="geometry">
            <mxRectangle width="30" height="30" as="alternateBounds" />
          </mxGeometry>
        </mxCell>
        <mxCell id="ROYj8HqKsCZeWACCtqD5-62" value="EVENTID" style="shape=partialRectangle;connectable=0;fillColor=none;top=0;left=0;bottom=0;right=0;align=left;spacingLeft=6;fontStyle=1;overflow=hidden;fontFamily=Times New Roman;fontSize=15;" parent="ROYj8HqKsCZeWACCtqD5-60" vertex="1">
          <mxGeometry x="30" width="170" height="30" as="geometry">
            <mxRectangle width="170" height="30" as="alternateBounds" />
          </mxGeometry>
        </mxCell>
        <mxCell id="ROYj8HqKsCZeWACCtqD5-63" value="" style="shape=tableRow;horizontal=0;startSize=0;swimlaneHead=0;swimlaneBody=0;fillColor=none;collapsible=0;dropTarget=0;points=[[0,0.5],[1,0.5]];portConstraint=eastwest;top=0;left=0;right=0;bottom=0;fontFamily=Times New Roman;fontSize=15;" parent="ROYj8HqKsCZeWACCtqD5-59" vertex="1">
          <mxGeometry y="60" width="200" height="30" as="geometry" />
        </mxCell>
        <mxCell id="ROYj8HqKsCZeWACCtqD5-64" value="" style="shape=partialRectangle;connectable=0;fillColor=none;top=0;left=0;bottom=0;right=0;editable=1;overflow=hidden;fontFamily=Times New Roman;fontSize=15;" parent="ROYj8HqKsCZeWACCtqD5-63" vertex="1">
          <mxGeometry width="30" height="30" as="geometry">
            <mxRectangle width="30" height="30" as="alternateBounds" />
          </mxGeometry>
        </mxCell>
        <mxCell id="ROYj8HqKsCZeWACCtqD5-65" value="recurrenceType" style="shape=partialRectangle;connectable=0;fillColor=none;top=0;left=0;bottom=0;right=0;align=left;spacingLeft=6;overflow=hidden;fontFamily=Times New Roman;fontSize=15;" parent="ROYj8HqKsCZeWACCtqD5-63" vertex="1">
          <mxGeometry x="30" width="170" height="30" as="geometry">
            <mxRectangle width="170" height="30" as="alternateBounds" />
          </mxGeometry>
        </mxCell>
        <mxCell id="ROYj8HqKsCZeWACCtqD5-66" value="" style="shape=tableRow;horizontal=0;startSize=0;swimlaneHead=0;swimlaneBody=0;fillColor=none;collapsible=0;dropTarget=0;points=[[0,0.5],[1,0.5]];portConstraint=eastwest;top=0;left=0;right=0;bottom=0;fontFamily=Times New Roman;fontSize=15;" parent="ROYj8HqKsCZeWACCtqD5-59" vertex="1">
          <mxGeometry y="90" width="200" height="30" as="geometry" />
        </mxCell>
        <mxCell id="ROYj8HqKsCZeWACCtqD5-67" value="" style="shape=partialRectangle;connectable=0;fillColor=none;top=0;left=0;bottom=0;right=0;editable=1;overflow=hidden;fontFamily=Times New Roman;fontSize=15;" parent="ROYj8HqKsCZeWACCtqD5-66" vertex="1">
          <mxGeometry width="30" height="30" as="geometry">
            <mxRectangle width="30" height="30" as="alternateBounds" />
          </mxGeometry>
        </mxCell>
        <mxCell id="ROYj8HqKsCZeWACCtqD5-68" value="separationCount" style="shape=partialRectangle;connectable=0;fillColor=none;top=0;left=0;bottom=0;right=0;align=left;spacingLeft=6;overflow=hidden;fontFamily=Times New Roman;fontSize=15;" parent="ROYj8HqKsCZeWACCtqD5-66" vertex="1">
          <mxGeometry x="30" width="170" height="30" as="geometry">
            <mxRectangle width="170" height="30" as="alternateBounds" />
          </mxGeometry>
        </mxCell>
        <mxCell id="ROYj8HqKsCZeWACCtqD5-69" value="" style="shape=tableRow;horizontal=0;startSize=0;swimlaneHead=0;swimlaneBody=0;fillColor=none;collapsible=0;dropTarget=0;points=[[0,0.5],[1,0.5]];portConstraint=eastwest;top=0;left=0;right=0;bottom=0;fontFamily=Times New Roman;fontSize=15;" parent="ROYj8HqKsCZeWACCtqD5-59" vertex="1">
          <mxGeometry y="120" width="200" height="30" as="geometry" />
        </mxCell>
        <mxCell id="ROYj8HqKsCZeWACCtqD5-70" value="" style="shape=partialRectangle;connectable=0;fillColor=none;top=0;left=0;bottom=0;right=0;editable=1;overflow=hidden;fontFamily=Times New Roman;fontSize=15;" parent="ROYj8HqKsCZeWACCtqD5-69" vertex="1">
          <mxGeometry width="30" height="30" as="geometry">
            <mxRectangle width="30" height="30" as="alternateBounds" />
          </mxGeometry>
        </mxCell>
        <object label="daysOfWeek" teamId="" id="ROYj8HqKsCZeWACCtqD5-71">
          <mxCell style="shape=partialRectangle;connectable=0;fillColor=none;top=0;left=0;bottom=0;right=0;align=left;spacingLeft=6;overflow=hidden;fontFamily=Times New Roman;fontSize=15;" parent="ROYj8HqKsCZeWACCtqD5-69" vertex="1">
            <mxGeometry x="30" width="170" height="30" as="geometry">
              <mxRectangle width="170" height="30" as="alternateBounds" />
            </mxGeometry>
          </mxCell>
        </object>
        <object label="dayOfWeek" teamId="" id="ROYj8HqKsCZeWACCtqD5-72">
          <mxCell style="shape=partialRectangle;connectable=0;fillColor=none;top=0;left=0;bottom=0;right=0;align=left;spacingLeft=6;overflow=hidden;fontFamily=Times New Roman;fontSize=15;" parent="1" vertex="1">
            <mxGeometry x="990" y="230.5" width="170" height="30" as="geometry">
              <mxRectangle width="150" height="30" as="alternateBounds" />
            </mxGeometry>
          </mxCell>
        </object>
        <object label="dayOfMonth" teamId="" id="ROYj8HqKsCZeWACCtqD5-73">
          <mxCell style="shape=partialRectangle;connectable=0;fillColor=none;top=0;left=0;bottom=0;right=0;align=left;spacingLeft=6;overflow=hidden;fontFamily=Times New Roman;fontSize=15;" parent="1" vertex="1">
            <mxGeometry x="990" y="260.5" width="170" height="31" as="geometry">
              <mxRectangle width="150" height="30" as="alternateBounds" />
            </mxGeometry>
          </mxCell>
        </object>
        <mxCell id="ROYj8HqKsCZeWACCtqD5-74" value="" style="endArrow=none;html=1;rounded=0;fillColor=#b1ddf0;strokeColor=#10739e;fontFamily=Times New Roman;fontSize=15;" parent="1" edge="1">
          <mxGeometry width="50" height="50" relative="1" as="geometry">
            <mxPoint x="990" y="350" as="sourcePoint" />
            <mxPoint x="990" y="230.5" as="targetPoint" />
          </mxGeometry>
        </mxCell>
        <object label="createdDate" teamId="" id="uul9XbZeBZBco5_SqSS8-1">
          <mxCell style="shape=partialRectangle;connectable=0;fillColor=none;top=0;left=0;bottom=0;right=0;align=left;spacingLeft=6;overflow=hidden;fontFamily=Times New Roman;fontSize=15;" parent="1" vertex="1">
            <mxGeometry x="670" y="410.5" width="170" height="30" as="geometry">
              <mxRectangle width="170" height="30" as="alternateBounds" />
            </mxGeometry>
          </mxCell>
        </object>
        <object label="lastModified" teamId="" id="uul9XbZeBZBco5_SqSS8-2">
          <mxCell style="shape=partialRectangle;connectable=0;fillColor=none;top=0;left=0;bottom=0;right=0;align=left;spacingLeft=6;overflow=hidden;fontFamily=Times New Roman;fontSize=15;" parent="1" vertex="1">
            <mxGeometry x="670" y="440.5" width="170" height="30" as="geometry">
              <mxRectangle width="170" height="30" as="alternateBounds" />
            </mxGeometry>
          </mxCell>
        </object>
        <object label="teamRole" teamId="" id="cZBWC3ubqyiQqlboVfXQ-1">
          <mxCell style="shape=partialRectangle;connectable=0;fillColor=none;top=0;left=0;bottom=0;right=0;align=left;spacingLeft=6;overflow=hidden;fontFamily=Times New Roman;fontSize=15;" parent="1" vertex="1">
            <mxGeometry x="30" y="350.5" width="170" height="30" as="geometry">
              <mxRectangle width="170" height="30" as="alternateBounds" />
            </mxGeometry>
          </mxCell>
        </object>
        <object label="createdDate" teamId="" id="cZBWC3ubqyiQqlboVfXQ-2">
          <mxCell style="shape=partialRectangle;connectable=0;fillColor=none;top=0;left=0;bottom=0;right=0;align=left;spacingLeft=6;overflow=hidden;fontFamily=Times New Roman;fontSize=15;" parent="1" vertex="1">
            <mxGeometry x="350" y="290.5" width="170" height="30" as="geometry">
              <mxRectangle width="170" height="30" as="alternateBounds" />
            </mxGeometry>
          </mxCell>
        </object>
        <mxCell id="0KluFjxymEB3PdpdBPrm-2" value="" style="edgeStyle=entityRelationEdgeStyle;fontSize=15;html=1;endArrow=ERoneToMany;rounded=0;entryX=1.008;entryY=0.931;entryDx=0;entryDy=0;entryPerimeter=0;exitX=-0.006;exitY=-0.054;exitDx=0;exitDy=0;exitPerimeter=0;fontFamily=Times New Roman;" parent="1" source="lhX8aBAA-CN6_TQrvfnU-33" target="lhX8aBAA-CN6_TQrvfnU-12" edge="1">
          <mxGeometry width="100" height="100" relative="1" as="geometry">
            <mxPoint x="270" y="180" as="sourcePoint" />
            <mxPoint x="230" y="290" as="targetPoint" />
          </mxGeometry>
        </mxCell>
        <mxCell id="0KluFjxymEB3PdpdBPrm-8" value="" style="fontSize=15;html=1;endArrow=ERzeroToOne;endFill=1;rounded=0;fontFamily=Times New Roman;" parent="1" edge="1">
          <mxGeometry width="100" height="100" relative="1" as="geometry">
            <mxPoint x="960" y="199.82999999999998" as="sourcePoint" />
            <mxPoint x="840" y="199.82999999999998" as="targetPoint" />
          </mxGeometry>
        </mxCell>
        <mxCell id="0KluFjxymEB3PdpdBPrm-10" value="" style="edgeStyle=orthogonalEdgeStyle;fontSize=15;html=1;endArrow=ERoneToMany;startArrow=ERmandOne;rounded=0;fontFamily=Times New Roman;" parent="1" edge="1">
          <mxGeometry width="100" height="100" relative="1" as="geometry">
            <mxPoint x="640" y="281" as="sourcePoint" />
            <mxPoint x="520" y="520" as="targetPoint" />
            <Array as="points">
              <mxPoint x="580" y="281" />
              <mxPoint x="580" y="520" />
            </Array>
          </mxGeometry>
        </mxCell>
        <mxCell id="0KluFjxymEB3PdpdBPrm-12" value="" style="edgeStyle=orthogonalEdgeStyle;fontSize=15;html=1;endArrow=ERzeroToMany;startArrow=ERmandOne;rounded=0;fontFamily=Times New Roman;" parent="1" edge="1">
          <mxGeometry width="100" height="100" relative="1" as="geometry">
            <mxPoint x="200" y="280" as="sourcePoint" />
            <mxPoint x="320" y="520" as="targetPoint" />
            <Array as="points">
              <mxPoint x="260" y="281" />
              <mxPoint x="260" y="520" />
            </Array>
          </mxGeometry>
        </mxCell>
        <object label="createdDate" teamId="" id="0tyxGABuyBjVOqtA7pnZ-1">
          <mxCell style="shape=partialRectangle;connectable=0;fillColor=none;top=0;left=0;bottom=0;right=0;align=left;spacingLeft=6;overflow=hidden;fontFamily=Times New Roman;fontSize=15;" parent="1" vertex="1">
            <mxGeometry x="990" y="290.5" width="170" height="30" as="geometry">
              <mxRectangle width="170" height="30" as="alternateBounds" />
            </mxGeometry>
          </mxCell>
        </object>
        <object label="lastModified" teamId="" id="0tyxGABuyBjVOqtA7pnZ-3">
          <mxCell style="shape=partialRectangle;connectable=0;fillColor=none;top=0;left=0;bottom=0;right=0;align=left;spacingLeft=6;overflow=hidden;fontFamily=Times New Roman;fontSize=15;" parent="1" vertex="1">
            <mxGeometry x="990" y="320.5" width="170" height="30" as="geometry">
              <mxRectangle width="170" height="30" as="alternateBounds" />
            </mxGeometry>
          </mxCell>
        </object>
        <object label="lastModified" teamId="" id="0tyxGABuyBjVOqtA7pnZ-4">
          <mxCell style="shape=partialRectangle;connectable=0;fillColor=none;top=0;left=0;bottom=0;right=0;align=left;spacingLeft=6;overflow=hidden;fontFamily=Times New Roman;fontSize=15;" parent="1" vertex="1">
            <mxGeometry x="350" y="320" width="170" height="30" as="geometry">
              <mxRectangle width="170" height="30" as="alternateBounds" />
            </mxGeometry>
          </mxCell>
        </object>
      </root>
    </mxGraphModel>
  </diagram>
</mxfile>
